<svg id="Capa_1" data-name="Capa 1" xmlns="http://www.w3.org/2000/svg" viewBox="0 0 268.5 282.67"><defs><style>.cls-1{fill:#978560;}.cls-2{fill:#818181;}.cls-3{fill:#f9ac16;}.cls-4{fill:#030201;}.cls-5{fill:#432e07;}.cls-6{fill:#7f5a12;}.cls-7{fill:#2a1d05;}.cls-8{fill:#fefefe;}.cls-9{fill:#231b0b;}.cls-10{fill:#231803;}.cls-11{fill:#221803;}.cls-12{fill:#f1f1f1;}</style></defs><path d="M380.36,215.26c1.61.3,3.23.58,4.84.92a40.46,40.46,0,0,1,31.67,34.19,40.87,40.87,0,0,1-80.44,14.38c-3.67-17.77,4.06-35.25,19.38-44.07a41.5,41.5,0,0,1,15.69-5.16c.24,0,.58.13.7-.26h.72a.31.31,0,0,0,.48,0Z" transform="translate(-258.46 -215.26)"/><path d="M403.39,497.92c-2.06-.88-3-2.57-3.76-4.6a186,186,0,0,0-15.82-32c-11.81-19.47-22.19-39.76-33.65-59.43-.85-1.45-1.7-2.89-2.46-4.38-.41-.79-.86-.91-1.71-.74s-.72.76-.74,1.32c-.29,12.24.1,24.47.12,36.7,0,10.27-.45,20.54-.3,30.82a191.44,191.44,0,0,0,1.5,21.27c.31,2.43-.61,3.95-2.47,4.47-3,.84-5.43-.94-5.24-4,.22-3.67.75-7.31,1-11,.59-8.78.71-17.58.58-26.37-.21-13.55-.61-27.1-.17-40.65.12-3.84,0-7.68,0-11.52,0-.94-.36-1-1.06-.8a3.26,3.26,0,0,0-2.28,1.78c-4,8.09-8.71,15.77-13.11,23.63q-17.55,31.32-35.2,62.56a21.2,21.2,0,0,0-3.21,9.29,3.78,3.78,0,0,1-2.51,3.23c-.39.17-.87.07-1.17.45H279.1a5.77,5.77,0,0,1-3.66-5.38,3.29,3.29,0,0,1,1.24-2.74A32.77,32.77,0,0,0,285.1,479c10.22-19.77,21.79-38.79,32.51-58.29,4.33-7.86,8.83-15.63,13.25-23.44a20.68,20.68,0,0,0,1.87-4.12,7.23,7.23,0,0,0-1.16-6.48,12.4,12.4,0,0,1-1.49-2.3c-.54-1.31-.16-2.07,1.2-2.4a4.34,4.34,0,0,1,1.06-.17h25c-.59.7-1.09,1.28-1.58,1.88-3.12,3.79-3.78,7.93-1.6,12.38s4.93,8.75,7.39,13.13q19.74,35.16,39.53,70.28c.88,1.56,1.68,3.17,2.57,4.73a13.15,13.15,0,0,0,4.28,4.76c1.66,1.06,2.54,2.48,2.15,4.43a5.18,5.18,0,0,1-3.56,4.28c-.17.06-.41,0-.49.24Z" transform="translate(-258.46 -215.26)"/><path d="M258.46,284.6a9.34,9.34,0,0,0,.69-3,28.91,28.91,0,0,1,24.21-22c15.64-2,29.34,7.79,32.07,23.32a28.07,28.07,0,0,1-23.8,33.13c-15,2.09-28.55-6.89-32.31-21.22a16.31,16.31,0,0,0-.86-3.52Z" transform="translate(-258.46 -215.26)"/><path d="M527,264.69c-1.25,3.17-4,4.6-6.89,5.77q-18.44,7.44-36.87,14.82l-37.68,15.05c-2.28.91-4.56,1.84-6.83,2.76a1.19,1.19,0,0,1-1.51-.25,3.42,3.42,0,0,1-.76-2.1,3.86,3.86,0,0,1-.06-.9c.29-1.65.45-1.8,2.05-1.94a1.51,1.51,0,0,0,1.18-.68l33.48-17.17L523.87,254c1.38-.71,1.33-.69,1.76.81.53,1.85.63,3.79,1.34,5.6Z" transform="translate(-258.46 -215.26)"/><path d="M443,316.51c4.47-.22,8.93-.47,13.4-.68l28.75-1.33c4.59-.22,9.18-.4,13.77-.62,3.55-.18,7.1-.45,10.66-.58,4.06-.15,8.13-.51,12.2-.42,3.2.07,4.54,1.3,4.94,4.48,0,.21-.07.49.25.6v.24a4,4,0,0,0,0,2.16v.48c-.33.08-.23.36-.28.58-.62,2.91-1.9,4-4.92,3.95-2.19,0-4.39-.17-6.58-.27l-47.54-2.16q-11-.49-22-.95a20.36,20.36,0,0,1-4.27-.52,3.53,3.53,0,0,0-2.65.33c-.57.72-1.33.59-2.09.45a1.47,1.47,0,0,1-.8-.63c-.34-.79-.53-1.64-.87-2.45a1.7,1.7,0,0,1,1.54-2.46,11.86,11.86,0,0,1,1.88-.19,1,1,0,0,1,.34.14A6,6,0,0,0,443,316.51Z" transform="translate(-258.46 -215.26)"/><path class="cls-1" d="M527,320.36a2.21,2.21,0,0,1,0-2.16Z" transform="translate(-258.46 -215.26)"/><path class="cls-2" d="M373.4,215.26c-.16.3-.32.36-.48,0Z" transform="translate(-258.46 -215.26)"/><path d="M404.23,291.28V306.6q0,25.13,0,50.26a19.34,19.34,0,0,1-.21,3.23c-.64,3.85-3.11,6-7.14,6.34-4.23.33-8.47.1-12.71.1-16.67,0-33.35-.06-50,0-14.36,0-28.72.08-43.07.1a17,17,0,0,1-3.11-.23c-4.44-.78-6.66-3.56-6.71-8.51,0-4.8,0-9.6,0-14.39q0-9.06-.09-18.12c0-4.56,1-5.71,5.52-5.87A36.88,36.88,0,0,0,301.91,316c9.08-4.45,14.35-11.81,16.28-21.64a36.18,36.18,0,0,0,.56-10,12.49,12.49,0,0,1,.06-3.23,2.79,2.79,0,0,1,2.54-2.49c9-1.08,17.21.25,23.55,7.74,9.16,10.83,21.12,15,35.07,13.86a45.9,45.9,0,0,0,18.57-5.87C400.38,293.35,402.23,292.36,404.23,291.28Z" transform="translate(-258.46 -215.26)"/><path d="M524.79,374.57c0,.65,0,1.3,0,2-.26,2.3-.54,4.59-.75,6.9-.06.65-.31.78-.88.76a9,9,0,0,1-3.77-1.15c-24.63-13-49.48-25.58-74.27-38.28a17.1,17.1,0,0,1-3.11-2.09.29.29,0,0,1-.07-.33,2.1,2.1,0,0,0,.21-1.26c0-.91-.05-1.81,0-2.72.05-.67.35-1,1.07-.73,3.4,1.34,6.82,2.67,10.22,4q20.89,8.38,41.79,16.79L518.92,368c.64.26,1.25.63,1.87,1a3.25,3.25,0,0,0,1.24.79A5.55,5.55,0,0,1,524.79,374.57Z" transform="translate(-258.46 -215.26)"/><path d="M342.81,378.68q-19.62,0-39.22,0a9.87,9.87,0,0,1-5.28-1.28,5.54,5.54,0,0,1-2.89-5.39,2.46,2.46,0,0,1,2.86-2.63c17.5.6,35,0,52.51.21,10.63.1,21.26.07,31.9.13a32.36,32.36,0,0,0,4.05-.33c2.23-.25,3.36.69,3.41,2.93a5.36,5.36,0,0,1-2.65,4.92,9.91,9.91,0,0,1-5.48,1.43H342.81Z" transform="translate(-258.46 -215.26)"/><path d="M436,321.57l.47.46c.6.41,1.3,0,1.92.24a2.88,2.88,0,0,0,.51,3.16,8.37,8.37,0,0,1,0,5.37c-.21.37-.46.72-.63,1.1-.95,2.15-.77,2.43.42,3.83a15.3,15.3,0,0,1,0,6.53c-1.39,1.66-1.21,3.32,0,5a4.31,4.31,0,0,1-.07,3.55,9.91,9.91,0,0,1-3.05-1.77c-2.74-1.74-5.61-3.26-8.35-5-2.95-1.84-5.11-4.21-5.05-8,0-2.19-.38-4.4-.27-6.58.18-3.68.53-7.36.38-11-.15-3.94-.83-7.86-.68-11.81a13.82,13.82,0,0,1,3.19-8.29c2.85-3.55,6.73-5.61,10.63-7.69l1-.48c.55-.31,1.12-.59,1.69-.85.95-.42,1.28-.2,1.36.86a2.58,2.58,0,0,1-.29,1.61,8,8,0,0,0-1.26,4.35c0,.51.24,1,.25,1.46-1,.52-1.81,1.13-1.67,2.42l.25.69c-.59.83.14,1.34.48,1.95a2.55,2.55,0,0,0,1.47.47c-1.16,1.45-1.08,2.48.33,4.64a10.89,10.89,0,0,1,0,5.2,2.8,2.8,0,0,0,0,3.78c-.08.15-.17.16-.29,0h0a5.62,5.62,0,0,0-2.58.09,1.5,1.5,0,0,0-1.16,2C435.36,319.74,435.57,320.7,436,321.57Z" transform="translate(-258.46 -215.26)"/><path class="cls-3" d="M438.66,350.79c0-1.18,0-2.37.07-3.55A108,108,0,0,0,449,353.9q33.44,21,66.91,41.91c1.63,1,3.32,1.92,5,2.92a7.94,7.94,0,0,1,4.14,6.49c.09,1.19.26,2.38.29,3.57a3.06,3.06,0,0,1-1.68,3.08c-1.22.6-2.24.06-3.2-.68-22.47-17.18-45.31-33.87-67.93-50.84C448,357,443.38,353.8,438.66,350.79Z" transform="translate(-258.46 -215.26)"/><path class="cls-3" d="M439.18,291.75V289.2l-2.76.93c3.05-2,6.14-4,9.16-6.11,10.83-7.48,21-15.82,31.44-23.82,13.8-10.57,27.71-21,41.57-31.5.89-.68,1.72-1.43,2.62-2.1,1.68-1.23,3.24-.59,3.57,1.47.1.63.13,1.27.23,1.9.66,4.08-1,7.1-4.33,9.28-5.49,3.57-11,7.09-16.54,10.63q-29.91,19.17-59.84,38.35A28.54,28.54,0,0,0,439.18,291.75Z" transform="translate(-258.46 -215.26)"/><path d="M407.48,319.89V305.26c0-4.49,1.45-5.9,5.92-5.75,4.07.14,5.67,1.79,5.52,5.84-.32,8.68,0,17.35-.13,26a43.66,43.66,0,0,1,.08,4.43c-.33,2.81-1.39,4-4.19,4.38a11.27,11.27,0,0,1-4.05-.11,3.55,3.55,0,0,1-2.95-3.05,21,21,0,0,1-.18-4.19c0-4.31,0-8.63,0-12.95Z" transform="translate(-258.46 -215.26)"/><path d="M263.72,350.36c-.21-2.27.29-4.53,0-6.81-.25-2.12.48-2.8,2.64-2.84,2.64,0,4,1,4.62,3.52a13.54,13.54,0,0,1,.17,6,4.53,4.53,0,0,1-5.7,3.7,1.91,1.91,0,0,1-1.75-2.05Z" transform="translate(-258.46 -215.26)"/><path d="M278.45,348.57c0,.27,0,.55,0,.83-.07,2.48-1.92,3.72-4.25,2.84a2,2,0,0,1-1.28-2.22,50.25,50.25,0,0,0-.05-5.49c0-1.5.81-2.23,2.44-2.32,1.91-.11,2.93.52,3.06,2.06A18.18,18.18,0,0,1,278.45,348.57Z" transform="translate(-258.46 -215.26)"/><path class="cls-4" d="M439.38,336.21l2.63.94a9.13,9.13,0,0,1,.28,4.09,1,1,0,0,1-1,1,3.52,3.52,0,0,0-2.12-.26c-.47,0-.35-.34-.36-.58,0-1.51,0-3,0-4.53C438.8,336.49,438.66,335.94,439.38,336.21Z" transform="translate(-258.46 -215.26)"/><path class="cls-5" d="M441.27,342.21a2.89,2.89,0,0,0,.83-3.3,7.9,7.9,0,0,1-.09-1.76,2.64,2.64,0,0,1,1.29.48c-.61-.05-.83.23-.81.85,0,1,0,2,0,3-.21.29,0,.77-.45,1,0,.08,0,.16,0,.24Z" transform="translate(-258.46 -215.26)"/><path class="cls-6" d="M439.38,336.21c-.19.05-.42.11-.41.35a28.54,28.54,0,0,0,.18,5.39l-.43.31q0-3.27,0-6.53Z" transform="translate(-258.46 -215.26)"/><path class="cls-7" d="M436.5,300c-.25-1.27.09-1.77,1.67-2.42.61.45.93-.32,1.43-.34-.09.42-.39.82-.76.78C437.29,297.8,436.77,298.72,436.5,300Z" transform="translate(-258.46 -215.26)"/><path class="cls-8" d="M402.18,236.4a10.93,10.93,0,0,1-10.7,10.71,11.22,11.22,0,0,1-10.87-10.76,11,11,0,0,1,10.86-10.7A10.72,10.72,0,0,1,402.18,236.4Z" transform="translate(-258.46 -215.26)"/><path class="cls-8" d="M352.89,274.76a10.69,10.69,0,1,1-.09-21.38,10.69,10.69,0,1,1,.09,21.38Z" transform="translate(-258.46 -215.26)"/><path class="cls-8" d="M376.75,270.45a11.25,11.25,0,0,1,10.78,10.88A10.91,10.91,0,0,1,376.72,292a10.56,10.56,0,0,1-10.67-10.64A10.93,10.93,0,0,1,376.75,270.45Z" transform="translate(-258.46 -215.26)"/><path class="cls-8" d="M362,225.57a10.53,10.53,0,0,1,10.64,10.63A10.8,10.8,0,0,1,361.91,247a11,11,0,0,1-10.71-10.72A10.76,10.76,0,0,1,362,225.57Z" transform="translate(-258.46 -215.26)"/><path class="cls-8" d="M400.57,274.56a10.79,10.79,0,0,1-10.64-10.74,10.67,10.67,0,1,1,10.64,10.74Z" transform="translate(-258.46 -215.26)"/><path class="cls-3" d="M438.91,330.8c0-1.79,0-3.58,0-5.37,1.45.83,3.1.67,4.67.89q13,1.8,26,3.54,11.22,1.51,22.44,3l22.56,3a30,30,0,0,1,3.66.6c6.31,1.71,9.52,8.71,6.57,14.21a3.4,3.4,0,0,1-4.48,1.92c-24.81-7.12-49.81-13.57-74.69-20.45-1.26-.35-2.48-.86-3.71-1.32A3.58,3.58,0,0,0,438.91,330.8Z" transform="translate(-258.46 -215.26)"/><path class="cls-9" d="M438.42,322.27c-.66,0-1.35.39-1.92-.24a4.79,4.79,0,0,0,2.19-.23Z" transform="translate(-258.46 -215.26)"/><path class="cls-8" d="M304.39,285.82a7,7,0,0,1,7.23,7.41c-.22,4.18-2.27,7.34-7.37,7.39-4.55,0-7.33-2.83-7.34-7.46S299.78,285.81,304.39,285.82Z" transform="translate(-258.46 -215.26)"/><path class="cls-8" d="M298,281.28c-4.63,0-7.58-2.77-7.55-7,0-4.65,2.91-7.71,7.2-7.65,4.82.06,7.75,3.05,7.68,7.85A7,7,0,0,1,298,281.28Z" transform="translate(-258.46 -215.26)"/><path class="cls-8" d="M271,300.77c-4.74,0-7.53-2.81-7.47-7.42S266.41,286,271,286c5.09.07,7.14,3.61,7.33,7.49A7.13,7.13,0,0,1,271,300.77Z" transform="translate(-258.46 -215.26)"/><path class="cls-8" d="M269.89,273.9c0-4.67,2.82-7.37,7.66-7.34a7.33,7.33,0,1,1-.1,14.66C272.7,281.24,269.88,278.51,269.89,273.9Z" transform="translate(-258.46 -215.26)"/><path class="cls-8" d="M287.44,298c4.6,0,7.38,2.81,7.37,7.4,0,4.44-3.11,7.6-7.39,7.53s-7.17-3.14-7.16-7.5C280.27,300.84,283,298,287.44,298Z" transform="translate(-258.46 -215.26)"/><path class="cls-3" d="M439,312.93c0-1.74,0-3.47,0-5.2a3,3,0,0,0,2.77.12c11.77-4,23.88-6.76,35.79-10.23s23.58-6.66,35.37-10c2.54-.71,5.11-1.28,7.62-2.08,2.88-.93,4.08.06,4.25,3.1.1,1.71.41,3.41.57,5.12a15.43,15.43,0,0,1,.09,2.63c-.2,2.87-2,4.67-5.38,5.16-7.11,1-14.24,2-21.36,2.93-7.44,1-14.88,2-22.32,3-7.67,1.06-15.34,2.18-23,3.24-4.31.59-8.6,1.35-12.94,1.75A8.36,8.36,0,0,0,439,312.93Z" transform="translate(-258.46 -215.26)"/><path class="cls-10" d="M438.66,316.75l.29,0c1.37.36,2.7-.1,4.05-.2a2.83,2.83,0,0,1-2.65.66C439.79,317,439.13,317.24,438.66,316.75Z" transform="translate(-258.46 -215.26)"/><path class="cls-11" d="M437.23,302.62c-.56-.55-1.38-1-.48-1.95C436.51,301.42,437.16,302,437.23,302.62Z" transform="translate(-258.46 -215.26)"/><path class="cls-10" d="M436,321.57a15.53,15.53,0,0,1-1.37-3,1.68,1.68,0,0,1,1.37-1.85,3.41,3.41,0,0,1,2.64.08c-.83,0-1.63.25-2.46.29a1.37,1.37,0,0,0-1,2.08A10.44,10.44,0,0,1,436,321.57Z" transform="translate(-258.46 -215.26)"/><path class="cls-8" d="M342.76,355.16H296c-.28,0-.56,0-.84,0-.45,0-.51-.22-.51-.59s0-.72.56-.66c.23,0,.47,0,.71,0h93.82c.28,0,.56,0,.84,0,.52,0,.33.44.38.71s0,.55-.42.53-.64,0-1,0Z" transform="translate(-258.46 -215.26)"/><path class="cls-12" d="M342.81,334.51h47.85c.35,0,.33.27.34.51s0,.47-.36.47H294.93c-.39,0-.41-.26-.42-.57s.17-.42.45-.42h47.85Z" transform="translate(-258.46 -215.26)"/><path class="cls-8" d="M323.58,340.72c3.18-.27,4,1.56,3.93,4.32,0,2.43-1.32,3.4-4.32,3.35-2.49-.05-3.54-1.24-3.48-3.93S320.83,340.65,323.58,340.72Z" transform="translate(-258.46 -215.26)"/><path class="cls-8" d="M336.41,348.32c-1.54.09-2.87-.05-3.54-1.57s-.37-4.41.62-5.25c1.49-1.25,3.24-.94,4.9-.48,1.4.39,1.76,1.62,1.87,2.92a.49.49,0,0,1,0,.12C340.38,347.59,339,348.55,336.41,348.32Z" transform="translate(-258.46 -215.26)"/><path class="cls-8" d="M314.55,344.76c0,2.73-.83,3.57-3.66,3.6s-4-1-4-3.64c0-2.85,1.1-4,3.92-4.06S314.52,341.66,314.55,344.76Z" transform="translate(-258.46 -215.26)"/><path class="cls-8" d="M361.86,348.33c-1.4,0-2.74-.08-3.35-1.66s-.3-4.31.78-5.19c1.46-1.21,3.15-1,4.77-.45,1.41.45,1.8,1.69,1.89,3,0,.2,0,.4,0,.6C366,347.38,364.94,348.29,361.86,348.33Z" transform="translate(-258.46 -215.26)"/><path class="cls-8" d="M378.53,344.76c0,2.79-.87,3.6-3.9,3.61-2.67,0-3.73-1-3.75-3.66,0-2.86,1.07-4,3.79-4S378.85,341.86,378.53,344.76Z" transform="translate(-258.46 -215.26)"/><path class="cls-8" d="M301.89,344.56c0,1.3,0,2.72-1.38,3.29a5.7,5.7,0,0,1-5.09,0c-1.61-1-1.19-2.82-1.13-4.37a2.59,2.59,0,0,1,2.06-2.61,6.61,6.61,0,0,1,3.42,0C301.37,341.38,301.93,342.37,301.89,344.56Z" transform="translate(-258.46 -215.26)"/><path class="cls-8" d="M352.83,344.68c.29,2.79-.93,3.67-3.82,3.69-2.67,0-3.81-1.22-3.78-3.95s1.26-3.79,4.25-3.74C352,340.72,352.87,341.79,352.83,344.68Z" transform="translate(-258.46 -215.26)"/><path class="cls-8" d="M391.23,344.59c0,2.75-.86,3.74-3.4,3.79-2.83,0-4.11-1-4.14-3.43,0-3,1-4.22,3.7-4.27S391.19,341.65,391.23,344.59Z" transform="translate(-258.46 -215.26)"/><path class="cls-4" d="M442.05,342.43l.45-1C442.46,341.83,442.68,342.32,442.05,342.43Z" transform="translate(-258.46 -215.26)"/><path d="M442.87,342.41a1.5,1.5,0,0,0,0-3,1.5,1.5,0,0,0,0,3Z" transform="translate(-258.46 -215.26)"/><path d="M442.87,342.41a1.5,1.5,0,0,0,0-3,1.5,1.5,0,0,0,0,3Z" transform="translate(-258.46 -215.26)"/><path d="M442.7,340.37a1.5,1.5,0,0,0,0-3,1.5,1.5,0,0,0,0,3Z" transform="translate(-258.46 -215.26)"/><path d="M442.7,340.37a1.5,1.5,0,0,0,0-3,1.5,1.5,0,0,0,0,3Z" transform="translate(-258.46 -215.26)"/><path d="M439.47,341.56a1.5,1.5,0,0,0,0-3,1.5,1.5,0,0,0,0,3Z" transform="translate(-258.46 -215.26)"/><path d="M438.79,341.73a1.5,1.5,0,0,0,0-3,1.5,1.5,0,0,0,0,3Z" transform="translate(-258.46 -215.26)"/><path d="M438.28,341.73a1.5,1.5,0,0,0,0-3,1.5,1.5,0,0,0,0,3Z" transform="translate(-258.46 -215.26)"/><path d="M438.11,341.73a1.5,1.5,0,0,0,0-3,1.5,1.5,0,0,0,0,3Z" transform="translate(-258.46 -215.26)"/><path d="M438.11,342.07a1.5,1.5,0,0,0,0-3,1.5,1.5,0,0,0,0,3Z" transform="translate(-258.46 -215.26)"/><path d="M438.79,339.86a1.5,1.5,0,0,0,0-3,1.5,1.5,0,0,0,0,3Z" transform="translate(-258.46 -215.26)"/><path d="M438.79,339.35a1.5,1.5,0,0,0,0-3,1.5,1.5,0,0,0,0,3Z" transform="translate(-258.46 -215.26)"/><path d="M438.79,339a1.5,1.5,0,0,0,0-3,1.5,1.5,0,0,0,0,3Z" transform="translate(-258.46 -215.26)"/><path d="M438.79,339a1.5,1.5,0,0,0,0-3,1.5,1.5,0,0,0,0,3Z" transform="translate(-258.46 -215.26)"/><path d="M443,341.22a1.5,1.5,0,0,0,0-3,1.5,1.5,0,0,0,0,3Z" transform="translate(-258.46 -215.26)"/></svg>